<?xml version="1.0" encoding="utf-8"?>
<!-- Generator: Adobe Illustrator 22.1.0, SVG Export Plug-In . SVG Version: 6.00 Build 0)  -->
<svg version="1.1" id="Lag_1" xmlns="http://www.w3.org/2000/svg" xmlns:xlink="http://www.w3.org/1999/xlink" x="0px" y="0px"
	 viewBox="0 0 141.7 141.7" style="enable-background:new 0 0 141.7 141.7;" xml:space="preserve">
<style type="text/css">
	.st0{stroke:#1AA3AD;stroke-miterlimit:10;}
	.st1{fill:none;stroke:#1AA3AD;stroke-width:10;stroke-miterlimit:10;}
	.st2{fill:#1AA3AD;stroke:#1AA3AD;stroke-miterlimit:10;}
</style>
<g>
	<path class="st0" d="M119.9,50.6c-5.4-12.4-19.8-18-32.1-12.7c-12.4,5.4-18,19.7-12.7,32.1c0,0,0,0,0,0.1
		c4,9.1,12.9,14.6,22.3,14.6c3.2,0,6.6-0.6,9.7-2C119.6,77.4,125.2,63,119.9,50.6z M109.3,64.1c-1.2,3.9-4.3,6.9-8.2,8.2
		c-1.2,0.4-2.4,0.6-3.7,0.6c-1.1,0-2.1-0.1-3.1-0.4c-0.3-0.1-0.7-0.2-1-0.3c-0.8-0.3-1.6-0.6-2.3-1.1c-0.3-0.2-0.6-0.4-0.8-0.5
		c-1-0.8-1.9-1.6-2.7-2.6c-0.2-0.2-0.4-0.5-0.5-0.8c-0.1-0.1-0.1-0.1-0.1-0.2c-0.1-0.1-0.1-0.2-0.2-0.3c-0.1-0.1-0.1-0.2-0.1-0.2
		c-0.2-0.3-0.4-0.7-0.5-1c0,0,0-0.1-0.1-0.1c-0.1-0.3-0.2-0.6-0.3-0.9c-0.4-1.2-0.6-2.5-0.6-3.8c0-1.6,0.3-3.1,0.9-4.5
		c0.1-0.3,0.2-0.6,0.3-0.8c1-2.2,2.7-4,4.8-5.3c0.3-0.2,0.7-0.4,1.1-0.6c0.5-0.3,1.1-0.5,1.7-0.7c0.1,0,0.2-0.1,0.3-0.1
		c1.1-0.3,2.2-0.5,3.3-0.5c1.1,0,2.1,0.1,3.1,0.4c0.3,0.1,0.7,0.2,1,0.3c0.8,0.3,1.6,0.7,2.3,1.1c0.3,0.2,0.6,0.3,0.8,0.5
		c1,0.8,1.9,1.6,2.7,2.7c0.2,0.2,0.4,0.5,0.5,0.8c0.1,0.1,0.1,0.1,0.1,0.2c0.1,0.1,0.1,0.2,0.2,0.3c0.1,0.1,0.1,0.2,0.1,0.2
		c0.2,0.3,0.4,0.7,0.5,1c0,0,0,0.1,0.1,0.1c0.1,0.3,0.2,0.6,0.3,0.9c0.4,1.2,0.6,2.5,0.6,3.8C109.9,61.7,109.7,62.9,109.3,64.1z"/>
	<polyline class="st1" points="83.7,66.3 32.4,88.8 19.2,94.6 25.4,109 	"/>
	<line class="st1" x1="39.2" y1="103" x2="32.8" y2="88.4"/>
</g>
<path class="st2" d="M97.5,36.5c-13.2,0-23.8,10.7-23.8,23.8c0,3.4,0.7,6.6,2,9.6c3.7,8.4,12.1,14.3,21.8,14.3
	c13.2,0,23.8-10.7,23.8-23.8C121.3,47.1,110.7,36.5,97.5,36.5z M109.3,64.1c-1.2,3.9-4.3,6.9-8.2,8.2c-1.2,0.4-2.4,0.6-3.7,0.6
	c-1.1,0-2.1-0.1-3.1-0.4c-0.3-0.1-0.7-0.2-1-0.3c-0.8-0.3-1.6-0.6-2.3-1.1c-0.3-0.2-0.5-0.4-0.8-0.5c-1-0.8-1.9-1.6-2.7-2.6
	c-0.2-0.2-0.4-0.5-0.5-0.8c-0.1-0.1-0.1-0.1-0.1-0.2c-0.1-0.1-0.1-0.2-0.2-0.3c-0.1-0.1-0.1-0.2-0.1-0.2c-0.2-0.3-0.4-0.7-0.5-1
	c0,0,0-0.1-0.1-0.1c-0.1-0.3-0.2-0.6-0.3-0.9c-0.4-1.2-0.6-2.5-0.6-3.8c0-1.6,0.3-3.1,0.9-4.5c0.1-0.3,0.2-0.6,0.3-0.8
	c1-2.2,2.7-4,4.8-5.3c0.3-0.2,0.7-0.4,1.1-0.6c0.5-0.3,1.1-0.5,1.7-0.7c0.1,0,0.2-0.1,0.3-0.1c1.1-0.3,2.2-0.5,3.3-0.5
	c1.1,0,2.1,0.1,3.1,0.4c0.3,0.1,0.7,0.2,1,0.3c0.8,0.3,1.6,0.7,2.3,1.1c0.3,0.2,0.6,0.3,0.8,0.5c1,0.8,1.9,1.6,2.7,2.7
	c0.2,0.2,0.4,0.5,0.5,0.8c0.1,0.1,0.1,0.1,0.1,0.2c0.1,0.1,0.1,0.2,0.2,0.3c0.1,0.1,0.1,0.2,0.1,0.2c0.2,0.3,0.4,0.7,0.5,1
	c0,0,0,0.1,0.1,0.1c0.1,0.3,0.2,0.6,0.3,0.9c0.4,1.2,0.6,2.5,0.6,3.8C109.9,61.7,109.7,62.9,109.3,64.1z"/>
</svg>
