<?xml version="1.0" encoding="utf-8"?>
<!-- Generator: Adobe Illustrator 22.1.0, SVG Export Plug-In . SVG Version: 6.00 Build 0)  -->
<svg version="1.1" id="Lag_1" xmlns="http://www.w3.org/2000/svg" xmlns:xlink="http://www.w3.org/1999/xlink" x="0px" y="0px"
	 viewBox="0 0 141.7 141.7" style="enable-background:new 0 0 141.7 141.7;" xml:space="preserve">
<style type="text/css">
	.st0{fill:#1AA3AD;}
</style>
<path class="st0" d="M84.7,69.5c8.5,7.9,14.2,22.8,14.2,39.9L84.7,69.5z"/>
<path class="st0" d="M84.8,54.5c0.9-2,1.4-4.2,1.4-6.5s-0.5-4.5-1.4-6.5V54.5z"/>
<path class="st0" d="M84.8,54.5c0.9-2,1.4-4.2,1.4-6.5s-0.5-4.5-1.4-6.5V54.5z"/>
<path class="st0" d="M42.4,109.4c0-16.9,5.6-31.8,14-39.7L42.4,109.4z"/>
<path class="st0" d="M56.6,54.2c-0.8-1.9-1.3-4-1.3-6.1c0-2.2,0.5-4.3,1.3-6.2V54.2z"/>
<path class="st0" d="M56.6,54.2c-0.8-1.9-1.3-4-1.3-6.1c0-2.2,0.5-4.3,1.3-6.2V54.2z"/>
<path class="st0" d="M86.3,48c0,2.3-0.5,4.5-1.4,6.5c-2.3,5.1-7.3,8.7-13.2,9c-0.3,0-0.6,0-0.9,0s-0.7,0-1,0
	c-5.9-0.4-11-4.1-13.2-9.3c-0.8-1.9-1.3-4-1.3-6.1c0-2.2,0.5-4.3,1.3-6.2c2.4-5.5,7.8-9.3,14.2-9.3c6.2,0,11.6,3.7,14.1,9
	C85.8,43.5,86.3,45.7,86.3,48z"/>
<path class="st0" d="M71.6,63.5c-0.3,0-0.6,0-0.9,0s-0.7,0-1,0c0.3,0,0.6,0,0.9,0C71,63.5,71.3,63.5,71.6,63.5z"/>
<path class="st0" d="M98.9,109.4L98.9,109.4H42.4l0,0c0-16.9,5.6-31.8,14-39.7c1.4-1.3,2.8-2.4,4.3-3.3c2.9,1.6,6.3,2.5,9.9,2.5
	s7-0.9,9.9-2.5c1.4,0.9,2.8,1.9,4.1,3.2C93.2,77.5,98.9,92.4,98.9,109.4z"/>
<path class="st0" d="M86.3,48c0,2.3-0.5,4.5-1.4,6.5c-2.3,5.1-7.3,8.7-13.2,9c-0.3,0-0.6,0-0.9,0s-0.7,0-1,0
	c-5.9-0.4-11-4.1-13.2-9.3c-0.8-1.9-1.3-4-1.3-6.1c0-2.2,0.5-4.3,1.3-6.2c2.4-5.5,7.8-9.3,14.2-9.3c6.2,0,11.6,3.7,14.1,9
	C85.8,43.5,86.3,45.7,86.3,48z"/>
<path class="st0" d="M86.3,48c0,2.3-0.5,4.5-1.4,6.5c-2.3,5.1-7.3,8.7-13.2,9c-0.3,0-0.6,0-0.9,0s-0.7,0-1,0
	c-5.9-0.4-11-4.1-13.2-9.3c-0.8-1.9-1.3-4-1.3-6.1c0-2.2,0.5-4.3,1.3-6.2c2.4-5.5,7.8-9.3,14.2-9.3c6.2,0,11.6,3.7,14.1,9
	C85.8,43.5,86.3,45.7,86.3,48z"/>
</svg>
